<?xml version="1.0" encoding="UTF-8"?><svg xmlns="http://www.w3.org/2000/svg" xmlns:xlink="http://www.w3.org/1999/xlink" viewBox="0 0 512 512"><defs><style>.f{fill:#363744;}.g{isolation:isolate;}.h{filter:url(#b);}.i{fill:url(#d);}.i,.j{mix-blend-mode:overlay;}.j{fill:url(#e);}</style><filter id="b" filterUnits="userSpaceOnUse"><feOffset dx="5" dy="5"/><feGaussianBlur result="c" stdDeviation="5"/><feFlood flood-color="#000" flood-opacity=".75"/><feComposite in2="c" operator="in"/><feComposite in="SourceGraphic"/></filter><radialGradient id="d" cx="77.02" cy="268.04" fx="77.02" fy="268.04" r="79.98" gradientTransform="matrix(1, 0, 0, 1, 0, 0)" gradientUnits="userSpaceOnUse"><stop offset=".36" stop-color="#fff" stop-opacity="0"/><stop offset=".98" stop-color="#000"/></radialGradient><radialGradient id="e" cx="62.28" cy="267.39" fx="62.28" fy="274.81" r="92.54" gradientTransform="matrix(1, 0, 0, 1, 0, 0)" gradientUnits="userSpaceOnUse"><stop offset=".43" stop-color="#000"/><stop offset="1" stop-color="#fff" stop-opacity="0"/></radialGradient></defs><g class="g"><g id="a"><g><g class="h"><path class="f" d="M65.15,223.5c-31.26,0-52.14,22.62-52.14,51.59s20.61,52.41,51.86,52.41,52.14-23.31,52.14-52.41-20.33-51.59-51.86-51.59Zm23.44,75.14c-5.88,6.09-14.08,9.31-23.72,9.31s-17.65-3.24-23.49-9.38c-5.69-5.98-8.82-14.32-8.82-23.49s3.1-17.22,8.73-22.94c5.85-5.95,14.1-9.09,23.86-9.09s18.19,3.02,23.83,8.74c5.55,5.63,8.48,13.68,8.48,23.29s-3.15,17.62-8.87,23.55Z"/><path class="f" d="M19.75,230.34c11.57-11.55,27.53-17.91,45.26-17.91v-27.93h0c-25.2,0-48.17,9.26-65.01,26.09l19.75,19.75Z"/><path class="i" d="M19.75,230.34c11.57-11.55,27.53-17.91,45.26-17.91v-23.92c-23.59,3.42-41.15,18-49.02,38.08l3.75,3.75Z"/><path class="j" d="M95.18,231.78c5.35,8.24,8.27,18.4,8.27,29.75,0,29.11-20.89,52.42-52.14,52.42-11.36,0-21.31-3.13-29.37-8.5,8.89,13.31,23.95,22.06,42.94,22.06,31.26,0,52.14-23.31,52.14-52.42,0-18.81-8.03-34.36-21.83-43.31Z"/></g><g><path class="f" d="M144.38,320.64c-8.34,0-17.43-1.99-23.16-6.1l6.22-12.2c4.36,2.61,8.96,4.6,14.07,4.6,4.11,0,6.22-1.24,6.22-2.99,0-2.86-3.36-4.23-7.59-5.73-7.22-2.74-17.06-5.98-17.06-17.8,0-10.71,9.21-16.43,22.41-16.43,8.09,0,13.2,1.49,19.54,4.98l-5.48,11.95c-4.73-2.62-9.46-3.49-13.69-3.49-2.99,0-5.85,.5-5.85,2.86,0,1.87,4.36,3.24,9.59,5.23,7.84,2.86,17.43,7.47,17.43,18.05,0,12.33-10.96,17.06-22.66,17.06Z"/><path class="f" d="M196.92,319.15c-10.83,0-17.93-8.34-17.93-19.67v-19.67h-6.72v-14.32h6.72v-22.28h19.3v22.28h9.09v14.32h-9.09v16.18c0,4.11,2.12,6.97,5.98,6.97h4.73v16.18h-12.08Z"/><path class="f" d="M255.92,285.41c-3.24-2.49-5.35-3.36-8.59-3.36-6.22,0-8.84,4.98-8.84,10.71v26.39h-19.3v-53.65h19.3v7.09c2.61-4.48,7.59-8.59,13.94-8.59,4.73,0,9.09,1.24,12.95,5.1l-9.46,16.31Z"/><path class="f" d="M303.98,319.15v-4.11c-5.85,4.11-9.21,5.6-18.55,5.6-10.33,0-19.42-6.47-19.42-16.68,0-16.68,20.54-19.92,37.97-20.67v-1.87c0-3.74-2.49-4.98-7.97-4.98-7.47,0-13.57,1.74-19.17,4.6l-5.98-11.58c7.1-3.98,16.06-5.48,25.77-5.48,17.8,0,26.64,5.72,26.64,21.04v34.11h-19.3Zm0-25.02c-8.22,0-17.43,1.87-17.43,7.84,0,3.11,3.11,4.98,6.22,4.98,4.86,0,8.09-1.12,11.2-3.86v-8.96Z"/><path class="f" d="M361.74,320.64c-16.93,0-29.5-12.2-29.5-28.13s12.32-28.51,29.5-28.51c9.09,0,16.06,3.11,21.79,9.96l-11.08,10.33c-3.11-3.36-6.72-4.98-10.71-4.98-6.85,0-11.58,5.6-11.58,13.2,0,6.47,4.61,12.95,11.58,12.95,4.98,0,7.59-1.99,10.58-5.48l12.95,9.09c-6.47,8.09-13.07,11.58-23.53,11.58Z"/><path class="f" d="M418.76,320.64c-15.81,0-29.01-12.08-29.01-28.38s13.44-28.26,28.88-28.26,29.01,11.83,29.01,28.13-13.44,28.51-28.88,28.51Zm-.12-41.33c-6.6,0-10.08,6.85-10.08,12.95s3.49,13.07,10.21,13.07,10.08-6.97,10.08-13.2-3.24-12.82-10.21-12.82Z"/><path class="f" d="M492.7,319.15v-27.64c0-7.22-1.74-11.33-7.59-11.33s-8.84,4.11-8.84,10.71v28.26h-19.3v-53.65h19.3v5.6c3.49-4.73,9.09-7.09,15.44-7.09,14.44,0,20.29,10.08,20.29,22.91v32.24h-19.3Z"/></g></g></g></g></svg>