<?xml version="1.0" encoding="UTF-8"?><svg xmlns="http://www.w3.org/2000/svg" xmlns:xlink="http://www.w3.org/1999/xlink" viewBox="0 0 512 512"><defs><style>.d{fill:#fff;}.e{isolation:isolate;}.f{fill:url(#c);mix-blend-mode:multiply;}.f,.g{opacity:.5;}.g{fill:url(#b);mix-blend-mode:hard-light;}</style><radialGradient id="b" cx="331.92" cy="299.09" fx="315.33" fy="299.09" r="286.36" gradientTransform="matrix(1, 0, 0, 1, 0, 0)" gradientUnits="userSpaceOnUse"><stop offset=".36" stop-color="#fff" stop-opacity="0"/><stop offset=".98" stop-color="#000"/></radialGradient><radialGradient id="c" cx="279.15" cy="296.78" fx="293.58" fy="323.33" r="331.33" gradientTransform="matrix(1, 0, 0, 1, 0, 0)" gradientUnits="userSpaceOnUse"><stop offset=".43" stop-color="#000"/><stop offset="1" stop-color="#fff" stop-opacity="0"/></radialGradient></defs><g class="e"><g id="a"><path class="d" d="M289.43,139.63c-111.91,0-186.68,80.99-186.68,184.7s73.78,187.67,185.69,187.67,186.68-83.46,186.68-187.67-72.79-184.7-185.69-184.7Zm83.93,269.02c-21.04,21.81-50.4,33.35-84.92,33.35s-63.2-11.61-84.11-33.57c-20.37-21.4-31.58-51.26-31.58-84.09s11.1-61.65,31.27-82.15c20.96-21.3,50.49-32.56,85.41-32.56s65.14,10.82,85.33,31.3c19.86,20.15,30.36,48.99,30.36,83.4s-11.28,63.08-31.76,84.32Z"/><path class="d" d="M126.88,164.13c41.42-41.37,98.57-64.13,162.06-64.13V0h0c-90.23,0-172.47,33.15-232.77,93.42l70.71,70.71Z"/><path class="g" d="M126.88,164.13c41.42-41.37,98.57-64.13,162.06-64.13V14.35c-84.47,12.26-147.32,64.44-175.5,136.34l13.44,13.44Z"/><path class="f" d="M396.95,169.27c19.15,29.5,29.61,65.87,29.61,106.5,0,104.21-74.78,187.67-186.69,187.67-40.66,0-76.29-11.22-105.17-30.43,31.84,47.64,85.76,78.99,153.74,78.99,111.91,0,186.68-83.46,186.68-187.67,0-67.36-28.76-123.02-78.17-155.06Z"/></g></g></svg>