<?xml version="1.0" encoding="UTF-8"?><svg id="a" xmlns="http://www.w3.org/2000/svg" viewBox="0 0 512 512"><defs><style>.b{fill:#fff;}</style></defs><path class="b" d="M386,162.5H126c-17.95,0-32.5,14.55-32.5,32.5V479.44c0,28.95,35.01,43.45,55.48,22.98l61.06-61.06c25.38-25.38,66.54-25.38,91.92,0l61.06,61.06c20.47,20.47,55.48,5.97,55.48-22.98V195c0-17.95-14.55-32.5-32.5-32.5Zm-2.5,310.9l-56.79-56.79c-18.89-18.89-44-29.29-70.71-29.29s-51.82,10.4-70.71,29.29l-56.79,56.79V197.5h255V473.4Z"/><path class="b" d="M353.5,0H158.5c-35.9,0-65,29.1-65,65v32.5c0,17.95,14.55,32.5,32.5,32.5H386c17.95,0,32.5-14.55,32.5-32.5v-32.5C418.5,29.1,389.4,0,353.5,0Zm30,95H128.5v-30c0-16.54,13.46-30,30-30h195c16.54,0,30,13.46,30,30v30Z"/></svg>