<?xml version="1.0" encoding="UTF-8"?><svg id="a" xmlns="http://www.w3.org/2000/svg" viewBox="0 0 512 512"><defs><style>.b{fill:#fff;}</style></defs><path class="b" d="M415.98,438.01c-46.92-46.4-75.99-110.81-75.99-182.01s29.07-135.61,75.99-182.01c22.58-22.33,11.76-60.65-19.22-67.67C378.51,2.19,359.52,0,340.02,0,199.52-.01,85.85,112.09,84.01,252.58c-1.87,142.95,113.45,259.42,255.98,259.42,19.58,0,38.64-2.2,56.96-6.36,30.89-7.02,41.55-45.35,19.03-67.62Zm-23.2,30.12c-.78,2.74-2.82,3.21-3.59,3.38-16.03,3.64-32.59,5.49-49.2,5.49-59.58,0-115.44-23.35-157.3-65.76-41.85-42.4-64.46-98.58-63.69-158.21,.77-58.68,24.06-113.55,65.58-154.52,41.52-40.96,96.71-63.52,155.4-63.52h.02c16.55,0,33.05,1.84,49.02,5.46,.8,.18,2.94,.67,3.75,3.48,.84,2.94-.85,4.61-1.41,5.16-55.7,55.09-86.38,128.57-86.38,206.9s30.68,151.81,86.38,206.9c.56,.55,2.27,2.24,1.41,5.23Z"/></svg>