<?xml version="1.0" encoding="UTF-8"?><svg id="a" xmlns="http://www.w3.org/2000/svg" viewBox="0 0 512 512"><defs><style>.b{fill:#363744;}</style></defs><path class="b" d="M451,80h-62.5C388.5,35.89,352.61,0,308.5,0h-105c-44.11,0-80,35.89-80,80H61c-9.67,0-17.5,7.83-17.5,17.5s7.83,17.5,17.5,17.5h32.5V382c0,71.8,58.2,130,130,130h65c71.8,0,130-58.2,130-130V115h32.5c9.67,0,17.5-7.83,17.5-17.5s-7.83-17.5-17.5-17.5Zm-292.5,0c0-24.85,20.15-45,45-45h105c24.85,0,45,20.15,45,45H158.5Zm225,302c0,52.38-42.62,95-95,95h-65c-52.38,0-95-42.62-95-95V115h255V382Z"/><path class="b" d="M207.25,377.25c9.67,0,17.5-7.83,17.5-17.5V197.25c0-9.67-7.83-17.5-17.5-17.5s-17.5,7.83-17.5,17.5v162.5c0,9.67,7.83,17.5,17.5,17.5Z"/><path class="b" d="M304.75,377.25c9.67,0,17.5-7.83,17.5-17.5V197.25c0-9.67-7.83-17.5-17.5-17.5s-17.5,7.83-17.5,17.5v162.5c0,9.67,7.83,17.5,17.5,17.5Z"/></svg>