<?xml version="1.0" encoding="UTF-8"?><svg id="a" xmlns="http://www.w3.org/2000/svg" viewBox="0 0 512 512"><defs><style>.b{fill:#363744;}</style></defs><path class="b" d="M447,0H65C29.1,0,0,29.1,0,65V447c0,35.9,29.1,65,65,65H447c35.9,0,65-29.1,65-65V65c0-35.9-29.1-65-65-65Zm-191,376c0,15.19-12.31,27.5-27.5,27.5H102.25c-15.19,0-27.5-12.31-27.5-27.5h0c0-15.19,12.31-27.5,27.5-27.5h126.25c15.19,0,27.5,12.31,27.5,27.5h0Zm181.25-120c0,15.19-12.31,27.5-27.5,27.5H102.25c-15.19,0-27.5-12.31-27.5-27.5h0c0-15.19,12.31-27.5,27.5-27.5H409.75c15.19,0,27.5,12.31,27.5,27.5h0Zm0-120c0,15.19-12.31,27.5-27.5,27.5H102.25c-15.19,0-27.5-12.31-27.5-27.5h0c0-15.19,12.31-27.5,27.5-27.5H409.75c15.19,0,27.5,12.31,27.5,27.5h0Z"/></svg>