<?xml version="1.0" encoding="UTF-8"?><svg id="a" xmlns="http://www.w3.org/2000/svg" viewBox="0 0 512 512"><defs><style>.b{fill:#363744;}</style></defs><path class="b" d="M419.75,141H92.25c-9.67,0-17.5,7.83-17.5,17.5s7.83,17.5,17.5,17.5H419.75c9.67,0,17.5-7.83,17.5-17.5s-7.83-17.5-17.5-17.5Z"/><path class="b" d="M419.75,238.5H92.25c-9.67,0-17.5,7.83-17.5,17.5s7.83,17.5,17.5,17.5H419.75c9.67,0,17.5-7.83,17.5-17.5s-7.83-17.5-17.5-17.5Z"/><path class="b" d="M238.5,336H92.25c-9.67,0-17.5,7.83-17.5,17.5s7.83,17.5,17.5,17.5H238.5c9.67,0,17.5-7.83,17.5-17.5s-7.83-17.5-17.5-17.5Z"/><path class="b" d="M447,0H65C29.1,0,0,29.1,0,65V447c0,35.9,29.1,65,65,65H447c35.9,0,65-29.1,65-65V65c0-35.9-29.1-65-65-65Zm30,447c0,16.54-13.46,30-30,30H65c-16.54,0-30-13.46-30-30V65c0-16.54,13.46-30,30-30H447c16.54,0,30,13.46,30,30V447Z"/></svg>