<?xml version="1.0" encoding="UTF-8"?><svg id="a" xmlns="http://www.w3.org/2000/svg" viewBox="0 0 512 512"><defs><style>.b{fill:#fff;}</style></defs><path class="b" d="M466.11,147.91L319.08,23.16c-36.39-30.87-89.77-30.87-126.16,0L45.89,147.91C16.78,172.61,0,208.86,0,247.03v199.81c0,35.9,29.1,65,65,65H447c35.9,0,65-29.1,65-65V247.03c0-38.18-16.78-74.43-45.89-99.13Zm10.89,298.94c0,16.54-13.46,30-30,30H65c-16.54,0-30-13.46-30-30V247.03c0-27.95,12.22-54.36,33.54-72.44L215.56,49.85c11.28-9.57,25.64-14.84,40.44-14.84s29.15,5.27,40.44,14.84l147.03,124.75c21.31,18.08,33.54,44.49,33.54,72.44v199.81Z"/><path class="b" d="M321,364.5H191c-9.67,0-17.5,7.83-17.5,17.5s7.83,17.5,17.5,17.5h130c9.67,0,17.5-7.83,17.5-17.5s-7.83-17.5-17.5-17.5Z"/></svg>