<?xml version="1.0" encoding="UTF-8"?><svg id="a" xmlns="http://www.w3.org/2000/svg" viewBox="0 0 512 512"><defs><style>.b{fill:#fff;}</style></defs><path class="b" d="M256,93.5c-89.75,0-162.5,72.75-162.5,162.5s72.75,162.5,162.5,162.5,162.5-72.75,162.5-162.5-72.75-162.5-162.5-162.5Zm0,290c-70.3,0-127.5-57.2-127.5-127.5s57.2-127.5,127.5-127.5,127.5,57.2,127.5,127.5-57.2,127.5-127.5,127.5Z"/><rect class="b" x="238.5" width="35" height="70" rx="17.5" ry="17.5"/><rect class="b" x="82.23" y="64.73" width="35" height="70" rx="17.5" ry="17.5" transform="translate(-41.31 99.73) rotate(-45)"/><rect class="b" x="17.5" y="221" width="35" height="70" rx="17.5" ry="17.5" transform="translate(-221 291) rotate(-90)"/><rect class="b" x="82.23" y="377.27" width="35" height="70" rx="17.5" ry="17.5" transform="translate(-121.27 774.31) rotate(-135)"/><rect class="b" x="238.5" y="442" width="35" height="70" rx="17.5" ry="17.5" transform="translate(512 954) rotate(-180)"/><rect class="b" x="394.77" y="377.27" width="35" height="70" rx="17.5" ry="17.5" transform="translate(995.31 412.27) rotate(135)"/><rect class="b" x="459.5" y="221" width="35" height="70" rx="17.5" ry="17.5" transform="translate(733 -221) rotate(90)"/><rect class="b" x="394.77" y="64.73" width="35" height="70" rx="17.5" ry="17.5" transform="translate(191.27 -262.31) rotate(45)"/></svg>