<?xml version="1.0" encoding="UTF-8"?><svg id="a" xmlns="http://www.w3.org/2000/svg" viewBox="0 0 512 512"><defs><style>.b{fill:#fff;}</style></defs><rect class="b" x="228.5" width="55" height="100" rx="27.5" ry="27.5"/><rect class="b" x="82.84" y="60.34" width="55" height="100" rx="27.5" ry="27.5" transform="translate(-45.7 110.34) rotate(-45)"/><rect class="b" x="22.5" y="206" width="55" height="100" rx="27.5" ry="27.5" transform="translate(-206 306) rotate(-90)"/><rect class="b" x="82.84" y="351.66" width="55" height="100" rx="27.5" ry="27.5" transform="translate(-95.66 763.7) rotate(-135)"/><rect class="b" x="228.5" y="412" width="55" height="100" rx="27.5" ry="27.5" transform="translate(512 924) rotate(180)"/><rect class="b" x="374.16" y="351.66" width="55" height="100" rx="27.5" ry="27.5" transform="translate(969.7 401.66) rotate(135)"/><rect class="b" x="434.5" y="206" width="55" height="100" rx="27.5" ry="27.5" transform="translate(718 -206) rotate(90)"/><rect class="b" x="374.16" y="60.34" width="55" height="100" rx="27.5" ry="27.5" transform="translate(195.66 -251.7) rotate(45)"/><circle class="b" cx="256" cy="256" r="130"/></svg>