<?xml version="1.0" encoding="UTF-8"?><svg id="a" xmlns="http://www.w3.org/2000/svg" viewBox="0 0 512 512"><defs><style>.b{fill:#363744;}</style></defs><path class="b" d="M340.41,195.64l-65-55.15c-5.41-4.59-12.31-7.12-19.41-7.12s-13.99,2.53-19.41,7.12l-65,55.15c-6.73,5.71-10.59,14.05-10.59,22.88v69.95c0,16.54,13.46,30,30,30h130c16.54,0,30-13.46,30-30v-69.95c0-8.83-3.86-17.16-10.59-22.88Zm-51.91,110.32h-65c-9.67,0-17.5-7.83-17.5-17.5s7.83-17.5,17.5-17.5h65c9.67,0,17.5,7.83,17.5,17.5s-7.83,17.5-17.5,17.5Z"/><path class="b" d="M256,0C130.36,0,28.5,101.86,28.5,227.5c0,61.46,24.37,117.23,63.98,158.17h0l93.44,96.61c38.32,39.62,101.85,39.62,140.17,0l93.44-96.61h0c39.61-40.94,63.98-96.71,63.98-158.17C483.5,101.86,381.64,0,256,0Zm130,288.46c0,35.9-29.1,65-65,65H191c-35.9,0-65-29.1-65-65v-69.95c0-19.09,8.39-37.21,22.95-49.56l65-55.15c24.26-20.58,59.85-20.58,84.11,0l65,55.15c14.56,12.35,22.95,30.47,22.95,49.56v69.95Z"/></svg>