<?xml version="1.0" encoding="UTF-8"?><svg id="a" xmlns="http://www.w3.org/2000/svg" viewBox="0 0 512 512"><defs><style>.b{fill:#363744;}</style></defs><path class="b" d="M363.05,168.95l-65-55.15c-24.26-20.58-59.85-20.58-84.11,0l-65,55.15c-14.56,12.35-22.95,30.47-22.95,49.56v69.95c0,35.9,29.1,65,65,65h130c35.9,0,65-29.1,65-65v-69.95c0-19.09-8.39-37.21-22.95-49.56Zm-12.05,119.51c0,16.54-13.46,30-30,30H191c-16.54,0-30-13.46-30-30v-69.95c0-8.83,3.86-17.16,10.59-22.88l65-55.15c5.41-4.59,12.31-7.12,19.41-7.12s13.99,2.53,19.41,7.12l65,55.15c6.73,5.71,10.59,14.05,10.59,22.88v69.95Z"/><path class="b" d="M256,0C130.36,0,28.5,101.86,28.5,227.5c0,61.46,24.37,117.23,63.98,158.17h0l93.44,96.61c38.32,39.62,101.85,39.62,140.17,0l93.44-96.61h0c39.61-40.94,63.98-96.71,63.98-158.17C483.5,101.86,381.64,0,256,0Zm138.37,361.33l-93.44,96.62c-11.88,12.28-27.84,19.05-44.93,19.05s-33.04-6.77-44.93-19.05l-93.44-96.61c-34.91-36.09-54.14-83.61-54.14-133.83,0-106.15,86.35-192.5,192.5-192.5s192.5,86.35,192.5,192.5c0,50.22-19.22,97.75-54.13,133.83Z"/><path class="b" d="M288.5,270.96h-65c-9.67,0-17.5,7.83-17.5,17.5s7.83,17.5,17.5,17.5h65c9.67,0,17.5-7.83,17.5-17.5s-7.83-17.5-17.5-17.5Z"/></svg>