<?xml version="1.0" encoding="UTF-8"?><svg id="a" xmlns="http://www.w3.org/2000/svg" viewBox="0 0 512 512"><defs><style>.b{fill:#363744;}</style></defs><path class="b" d="M256,191c-35.9,0-65,29.1-65,65s29.1,65,65,65,65-29.1,65-65-29.1-65-65-65Zm0,95c-16.54,0-30-13.46-30-30s13.46-30,30-30,30,13.46,30,30-13.46,30-30,30Z"/><path class="b" d="M421,191c-35.9,0-65,29.1-65,65s29.1,65,65,65,65-29.1,65-65-29.1-65-65-65Zm0,95c-16.54,0-30-13.46-30-30s13.46-30,30-30,30,13.46,30,30-13.46,30-30,30Z"/><path class="b" d="M91,191c-35.9,0-65,29.1-65,65s29.1,65,65,65,65-29.1,65-65-29.1-65-65-65Zm0,95c-16.54,0-30-13.46-30-30s13.46-30,30-30,30,13.46,30,30-13.46,30-30,30Z"/></svg>