<?xml version="1.0" encoding="UTF-8" standalone="no"?>
<!DOCTYPE svg PUBLIC "-//W3C//DTD SVG 1.1//EN" "http://www.w3.org/Graphics/SVG/1.1/DTD/svg11.dtd">
<svg width="100%" height="100%" viewBox="0 0 2134 2134" version="1.1" xmlns="http://www.w3.org/2000/svg" xmlns:xlink="http://www.w3.org/1999/xlink" xml:space="preserve" xmlns:serif="http://www.serif.com/" style="fill-rule:evenodd;clip-rule:evenodd;stroke-linejoin:round;stroke-miterlimit:2;">
    <g transform="matrix(4.16667,0,0,4.16667,0,0)">
        <rect id="Light-Standard" x="0" y="0" width="512" height="512" style="fill:none;"/>
        <g id="Light-Standard1" serif:id="Light-Standard">
            <path d="M256,191C291.874,191 321,220.126 321,256C321,291.874 291.874,321 256,321C220.126,321 191,291.874 191,256C191,220.126 220.126,191 256,191ZM256,226C272.557,226 286,239.443 286,256C286,272.557 272.557,286 256,286C239.443,286 226,272.557 226,256C226,239.443 239.443,226 256,226Z" style="fill:rgb(54,55,68);"/>
            <g transform="matrix(1,0,0,1,-165,0)">
                <path d="M256,191C291.874,191 321,220.126 321,256C321,291.874 291.874,321 256,321C220.126,321 191,291.874 191,256C191,220.126 220.126,191 256,191ZM256,226C272.557,226 286,239.443 286,256C286,272.557 272.557,286 256,286C239.443,286 226,272.557 226,256C226,239.443 239.443,226 256,226Z" style="fill:rgb(54,55,68);"/>
            </g>
            <g transform="matrix(1,0,0,1,165,0)">
                <path d="M256,191C291.874,191 321,220.126 321,256C321,291.874 291.874,321 256,321C220.126,321 191,291.874 191,256C191,220.126 220.126,191 256,191ZM256,226C272.557,226 286,239.443 286,256C286,272.557 272.557,286 256,286C239.443,286 226,272.557 226,256C226,239.443 239.443,226 256,226Z" style="fill:rgb(54,55,68);"/>
            </g>
        </g>
    </g>
</svg>
