<?xml version="1.0" encoding="UTF-8"?><svg id="a" xmlns="http://www.w3.org/2000/svg" viewBox="0 0 512 512"><defs><style>.b{fill:#fff;}</style></defs><path class="b" d="M382,60.38H130C58.2,60.38,0,118.58,0,190.38v130c0,71.8,58.2,130,130,130h252c71.8,0,130-58.2,130-130V190.38c0-71.8-58.2-130-130-130Zm95,260c0,52.38-42.62,95-95,95H130c-52.38,0-95-42.62-95-95V190.38c0-52.38,42.62-95,95-95h252c52.38,0,95,42.62,95,95v130Z"/><path class="b" d="M256,288.61c-17.64,0-35.27-5.6-49.99-16.81l-88.61-67.5c-7.69-5.86-9.17-16.84-3.32-24.53s16.84-9.17,24.53-3.32l88.61,67.5c16.95,12.91,40.62,12.91,57.57,0l88.61-67.5c7.69-5.86,18.67-4.37,24.53,3.32,5.86,7.69,4.37,18.67-3.32,24.53l-88.61,67.5c-14.72,11.21-32.35,16.82-49.99,16.82Z"/></svg>