<?xml version="1.0" encoding="UTF-8"?><svg id="a" xmlns="http://www.w3.org/2000/svg" viewBox="0 0 512 512"><defs><style>.b{fill:#fff;}</style></defs><path class="b" d="M435.32,.99L79.68,66.44C2.42,80.66-27.16,175.73,28.39,231.27l42.13,42.13c12.19,12.19,19.04,28.72,19.04,45.96v38.08c0,35.9,29.1,65,65,65h38.08c17.24,0,33.77,6.85,45.96,19.04l42.13,42.13c55.55,55.55,150.61,25.96,164.83-51.3L511.01,76.68C519.25,31.9,480.1-7.25,435.32,.99ZM67.28,192.38c-16.39-16.39-12.82-35.31-10.53-42.68,2.29-7.37,10.09-24.97,32.89-29.17L411.88,61.23,144.56,328.55v-9.19c0-32.05-12.48-62.19-35.15-84.85l-42.13-42.13Zm324.19,229.98c-4.41,23.98-25.01,34.9-42.28,34.9h0c-7.77,0-19.21-2.18-29.57-12.54l-42.13-42.13c-22.67-22.67-52.8-35.15-84.85-35.15h-9.19L450.77,100.12l-59.31,322.25Z"/></svg>