<?xml version="1.0" encoding="UTF-8"?><svg id="a" xmlns="http://www.w3.org/2000/svg" viewBox="0 0 512 512"><defs><style>.b{fill:#363744;}</style></defs><rect class="b" x="349.5" y="63.75" width="162.5" height="35" rx="17.5" ry="17.5"/><rect class="b" x="349.5" y="63.75" width="162.5" height="35" rx="17.5" ry="17.5" transform="translate(349.5 512) rotate(-90)"/><path class="b" d="M162.5,97.5c-35.9,0-65,29.1-65,65s29.1,65,65,65,65-29.1,65-65-29.1-65-65-65Zm0,95c-16.54,0-30-13.46-30-30s13.46-30,30-30,30,13.46,30,30-13.46,30-30,30Z"/><path class="b" d="M374.19,240.68l-105.81,117.57c-12.46,13.84-33.97,14.41-47.14,1.24l-29.03-29.03c-25.38-25.38-66.54-25.38-91.92,0L29.71,401.04c-3.21,3.21-6,6.61-8.37,10.13,4.91,18.27,14.31,34.72,26.95,48.08-.13-.28-.24-.54-.33-.77-1.8-4.34-6.65-19.54,6.5-32.69l70.58-70.58c5.67-5.67,13.2-8.79,21.21-8.79s15.55,3.12,21.21,8.79l29.03,29.03c12.75,12.75,29.7,19.77,47.73,19.77,19.11,0,37.4-8.14,50.18-22.34l105.81-117.57c5.76-6.4,13.68-9.93,22.3-9.93s16.54,3.53,22.3,9.93l49.7,55.22v-52.32l-23.69-26.32c-25.82-28.69-70.81-28.69-96.63,0Z"/><path class="b" d="M494.5,168.55c-9.67,0-17.5,7.83-17.5,17.5v195.95c0,52.38-42.62,95-95,95H130c-52.38,0-95-42.62-95-95V130c0-52.38,42.62-95,95-95h195.95c9.67,0,17.5-7.83,17.5-17.5S335.62,0,325.95,0H130C58.2,0,0,58.2,0,130v252c0,71.8,58.2,130,130,130h252c71.8,0,130-58.2,130-130V186.05c0-9.67-7.83-17.5-17.5-17.5Z"/></svg>