<?xml version="1.0" encoding="UTF-8"?><svg id="a" xmlns="http://www.w3.org/2000/svg" viewBox="0 0 512 512"><defs><style>.b{fill:#fff;}</style></defs><path class="b" d="M435.32,.99L79.68,66.44C2.42,80.66-27.16,175.73,28.39,231.27l42.13,42.13c12.19,12.19,19.04,28.72,19.04,45.96v38.08c0,35.9,29.1,65,65,65h38.08c17.24,0,33.77,6.85,45.96,19.04l42.13,42.13c55.55,55.55,150.61,25.96,164.83-51.3L511.01,76.68C519.25,31.9,480.1-7.25,435.32,.99ZM53.13,206.52c-16.72-16.72-22.51-40.19-15.48-62.77,7.03-22.58,25.11-38.62,48.36-42.9L441.66,35.41c1.9-.35,3.8-.53,5.66-.53,1.57,0,3.13,.13,4.67,.38L124.96,362.3c-.26-1.58-.4-3.2-.4-4.85v-38.08c0-26.71-10.4-51.82-29.29-70.71l-42.13-42.13ZM476.59,70.34l-65.45,355.64c-6.48,35.23-36.66,51.28-61.95,51.28h0c-11.55,0-28.51-3.19-43.71-18.4l-42.13-42.13c-18.89-18.89-44-29.29-70.71-29.29h-38.08c-1.65,0-3.27-.14-4.85-.4L476.74,60.01c.5,3.07,.55,6.53-.15,10.33Z"/></svg>