<?xml version="1.0" encoding="UTF-8"?><svg id="a" xmlns="http://www.w3.org/2000/svg" viewBox="0 0 512 512"><defs><style>.b{fill:#363744;}</style></defs><path class="b" d="M162.5,97.5c-35.9,0-65,29.1-65,65s29.1,65,65,65,65-29.1,65-65-29.1-65-65-65Z"/><path class="b" d="M494.5,168.55c-9.67,0-17.5,7.83-17.5,17.5v61.51l-6.19-6.87c-25.82-28.69-70.81-28.69-96.63,0l-105.81,117.57c-12.46,13.84-33.97,14.41-47.14,1.24l-29.03-29.03c-25.38-25.38-66.54-25.38-91.92,0l-64.41,64.41c-.57-4.21-.88-8.51-.88-12.87V130c0-52.38,42.62-95,95-95h195.95c9.67,0,17.5-7.83,17.5-17.5S335.62,0,325.95,0H130C58.2,0,0,58.2,0,130v252c0,71.8,58.2,130,130,130h252c71.8,0,130-58.2,130-130V186.05c0-9.67-7.83-17.5-17.5-17.5Z"/><path class="b" d="M484.5,70h-42.5V27.5c0-15.19-12.31-27.5-27.5-27.5h0c-15.19,0-27.5,12.31-27.5,27.5v42.5h-42.5c-15.19,0-27.5,12.31-27.5,27.5h0c0,15.19,12.31,27.5,27.5,27.5h42.5v42.5c0,15.19,12.31,27.5,27.5,27.5h0c15.19,0,27.5-12.31,27.5-27.5v-42.5h42.5c15.19,0,27.5-12.31,27.5-27.5h0c0-15.19-12.31-27.5-27.5-27.5Z"/></svg>