<?xml version="1.0" encoding="UTF-8"?><svg id="a" xmlns="http://www.w3.org/2000/svg" viewBox="0 0 512 512"><defs><style>.b{fill:#363744;}</style></defs><circle class="b" cx="256" cy="254.5" r="62.5"/><path class="b" d="M382,0H130C58.2,0,0,58.2,0,130v252c0,52.75,31.42,98.16,76.57,118.54h0c1.19,.54,2.4,1.06,3.61,1.56,.31,.13,.62,.26,.94,.38,1.01,.41,2.03,.81,3.05,1.19,.24,.09,.47,.18,.71,.27,1.26,.46,2.52,.91,3.79,1.34,.19,.06,.38,.12,.57,.19,1.1,.36,2.2,.71,3.32,1.04,.29,.09,.59,.18,.88,.26,1.28,.37,2.57,.74,3.86,1.07h0c1.35,.35,2.7,.67,4.06,.98,.24,.05,.48,.1,.72,.16,1.16,.25,2.32,.49,3.49,.71,.23,.04,.45,.09,.68,.13,7.69,1.42,15.62,2.17,23.73,2.17h252c8.1,0,16.03-.75,23.73-2.17,.23-.04,.45-.09,.68-.13,1.17-.22,2.33-.46,3.49-.71,.24-.05,.48-.1,.72-.16,1.36-.31,2.72-.63,4.06-.98h0c1.3-.34,2.58-.7,3.86-1.07,.29-.09,.59-.17,.88-.26,1.11-.33,2.22-.68,3.32-1.04,.19-.06,.38-.12,.57-.18,1.27-.43,2.54-.87,3.8-1.34,.24-.09,.47-.18,.71-.27,1.02-.39,2.04-.78,3.05-1.19,.31-.13,.62-.25,.93-.38,1.21-.5,2.42-1.02,3.61-1.56h0c45.15-20.38,76.57-65.79,76.57-118.55V130C512,58.2,453.8,0,382,0Zm-126,157c53.85,0,97.5,43.65,97.5,97.5s-43.65,97.5-97.5,97.5-97.5-43.65-97.5-97.5,43.65-97.5,97.5-97.5Zm126,320h-1.19c-29.35-36.56-74.39-60-124.81-60s-95.46,23.44-124.81,60h-1.19c-13.03,0-25.46-2.64-36.77-7.41,34.89-52.78,94.76-87.59,162.77-87.59s127.88,34.82,162.77,87.59c-11.32,4.77-23.74,7.41-36.77,7.41ZM457,120c0,9.66-7.84,17.5-17.5,17.5h-95c-9.66,0-17.5-7.84-17.5-17.5h0c0-9.67,7.83-17.5,17.5-17.5h95c9.66,0,17.5,7.84,17.5,17.5h0Z"/></svg>