<?xml version="1.0" encoding="UTF-8"?><svg id="a" xmlns="http://www.w3.org/2000/svg" viewBox="0 0 512 512"><defs><style>.b{fill:#363744;}</style></defs><path class="b" d="M392.19,222.04l-102.19-102.19c-12.78-12.78-33.49-12.78-46.26,0L33.53,330.05c-10.12,10.12-16.64,23.27-18.57,37.45L.37,474.78c-2.91,21.41,15.37,39.71,36.78,36.83l107.23-14.45c14.21-1.91,27.39-8.44,37.53-18.58l210.28-210.28c12.78-12.78,12.78-33.49,0-46.26Z"/><path class="b" d="M493.08,75.49l-56.53-56.53c-25.38-25.38-66.54-25.38-91.92,0l-30.03,30.03c-12.69,12.69-12.69,33.27,0,45.96l102.5,102.5c12.69,12.69,33.27,12.69,45.96,0l30.03-30.03c25.38-25.38,25.38-66.54,0-91.92Z"/><rect class="b" x="0" y="70" width="195" height="55" rx="27.5" ry="27.5"/><rect class="b" x="0" y="70" width="195" height="55" rx="27.5" ry="27.5" transform="translate(0 195) rotate(-90)"/></svg>