<?xml version="1.0" encoding="UTF-8"?><svg id="a" xmlns="http://www.w3.org/2000/svg" viewBox="0 0 512 512"><defs><style>.b{fill:#363744;}</style></defs><path class="b" d="M95.13,363.1c-9.82-9.82-18.62-20.39-26.37-31.56l-34.34,59.47c-12.98,22.48,4.33,50.35,30.24,48.68l34.71-2.24c13.09-.84,25.41,6.27,31.22,18.03l15.42,31.18c11.51,23.27,44.3,24.33,57.28,1.85l34.36-59.51c-53.85-4.27-103.91-27.28-142.53-65.9Z"/><path class="b" d="M443.24,331.54c-7.75,11.17-16.55,21.74-26.37,31.56-38.62,38.62-88.67,61.63-142.53,65.9l34.36,59.51c12.98,22.48,45.77,21.42,57.28-1.85l15.42-31.18c5.82-11.76,18.13-18.87,31.22-18.03l34.71,2.24c25.9,1.67,43.22-26.2,30.24-48.68l-34.34-59.47Z"/><path class="b" d="M390.54,61.08c-3.39-3.23-6.89-6.34-10.5-9.32-2.41-1.99-4.86-3.92-7.37-5.79-2.5-1.87-5.05-3.68-7.65-5.44-5.19-3.5-10.55-6.77-16.08-9.77-11.05-6-22.75-10.97-34.96-14.77-1.53-.47-3.06-.93-4.6-1.37-16.97-4.82-34.87-7.4-53.38-7.4s-36.42,2.58-53.38,7.4c-1.54,.44-3.08,.89-4.6,1.37-12.21,3.8-23.91,8.76-34.96,14.77-2.76,1.5-5.49,3.07-8.17,4.7-5.36,3.26-10.55,6.77-15.56,10.51-2.5,1.87-4.96,3.8-7.37,5.79-10.83,8.94-20.69,19.03-29.37,30.08-1.93,2.46-3.8,4.96-5.61,7.51-8.16,11.47-15.1,23.86-20.65,36.98-1.23,2.92-2.4,5.87-3.49,8.86-7.65,20.91-11.83,43.49-11.83,67.05v.02c0,2,.04,3.99,.1,5.97,.02,.59,.04,1.19,.07,1.78,.06,1.46,.13,2.91,.22,4.36,.04,.6,.07,1.2,.11,1.8,.13,1.81,.28,3.61,.45,5.4,.02,.16,.03,.32,.04,.48,.2,1.96,.43,3.92,.69,5.86,.07,.52,.15,1.04,.22,1.57,.21,1.47,.43,2.94,.66,4.39,.09,.55,.18,1.11,.27,1.66,.3,1.72,.61,3.43,.95,5.14,.04,.2,.07,.4,.11,.59,.39,1.93,.82,3.86,1.27,5.77,.1,.41,.2,.81,.3,1.22,.37,1.52,.75,3.03,1.16,4.54,.13,.48,.26,.96,.39,1.43,.46,1.68,.94,3.35,1.45,5,.06,.18,.11,.37,.17,.56,.59,1.9,1.2,3.79,1.85,5.67,.09,.27,.19,.53,.28,.8,.55,1.59,1.12,3.16,1.71,4.73,.15,.4,.3,.79,.45,1.19,.63,1.64,1.28,3.26,1.95,4.88,.07,.17,.14,.34,.2,.5,.78,1.86,1.58,3.7,2.42,5.53,.06,.12,.12,.25,.17,.37,.75,1.64,1.53,3.26,2.32,4.88,.16,.33,.33,.66,.49,.99,.78,1.57,1.58,3.12,2.41,4.66,.09,.17,.18,.34,.27,.51,.96,1.78,1.94,3.55,2.95,5.29,33.72,58.27,96.73,97.47,168.89,97.47s135.17-39.2,168.89-97.47c1.01-1.75,1.99-3.51,2.95-5.3,.09-.17,.18-.33,.26-.5,.82-1.54,1.63-3.1,2.41-4.67,.16-.33,.33-.66,.49-.99,.8-1.61,1.57-3.24,2.32-4.88,.06-.12,.12-.25,.17-.37,.83-1.83,1.64-3.67,2.42-5.53,.07-.17,.13-.33,.2-.5,.67-1.62,1.32-3.24,1.95-4.88,.15-.39,.3-.79,.45-1.18,.59-1.57,1.16-3.14,1.71-4.73,.09-.27,.19-.53,.28-.8,.64-1.88,1.26-3.77,1.85-5.67,.06-.18,.11-.37,.17-.56,.51-1.66,.99-3.33,1.45-5,.13-.48,.26-.95,.39-1.43,.4-1.51,.79-3.02,1.16-4.54,.1-.41,.2-.81,.3-1.22,.45-1.91,.88-3.84,1.27-5.77,.04-.2,.07-.39,.11-.59,.34-1.71,.66-3.42,.95-5.14,.09-.55,.18-1.1,.27-1.65,.24-1.46,.46-2.93,.67-4.4,.07-.52,.15-1.04,.22-1.56,.26-1.95,.49-3.9,.69-5.87,.02-.16,.03-.31,.04-.47,.18-1.8,.33-3.61,.45-5.42,.04-.6,.08-1.19,.11-1.79,.09-1.45,.16-2.91,.22-4.37,.02-.59,.05-1.18,.07-1.77,.06-1.99,.1-3.99,.1-5.99,0-55.53-23.21-105.64-60.46-141.15Zm-42.62,128.5l-31.24,23.69c-5.42,4.11-7.7,11.15-5.74,17.65l11.35,37.53c4.46,14.75-12.19,26.84-24.84,18.04l-32.18-22.39c-5.58-3.88-12.98-3.88-18.56,0l-32.18,22.39c-12.65,8.8-29.3-3.3-24.84-18.04l11.35-37.53c1.97-6.51-.32-13.55-5.74-17.65l-31.24-23.69c-12.28-9.31-5.92-28.88,9.49-29.2l39.2-.8c6.8-.14,12.79-4.49,15.02-10.91l12.87-37.03c5.06-14.55,25.64-14.55,30.7,0l12.87,37.03c2.23,6.42,8.22,10.77,15.02,10.91l39.2,.8c15.4,.31,21.76,19.89,9.49,29.2Z"/></svg>