<?xml version="1.0" encoding="UTF-8"?><svg id="a" xmlns="http://www.w3.org/2000/svg" viewBox="0 0 512 512"><defs><style>.b{fill:#363744;}</style></defs><path class="b" d="M382,0H130C58.2,0,0,58.2,0,130v162.5c0,71.8,58.2,130,130,130h5.96c19.34,0,37.68,8.61,50.03,23.5l44.99,54.24c13,15.67,37.03,15.67,50.03,0l44.99-54.24c12.35-14.89,30.69-23.5,50.03-23.5h5.96c71.8,0,130-58.2,130-130V130C512,58.2,453.8,0,382,0Zm95,292.5c0,52.38-42.62,95-95,95h-5.96c-29.86,0-57.91,13.18-76.97,36.16l-43.07,51.92-43.07-51.92c-19.06-22.98-47.11-36.16-76.97-36.16h-5.96c-52.38,0-95-42.62-95-95V130c0-52.38,42.62-95,95-95h252c52.38,0,95,42.62,95,95v162.5Z"/><path class="b" d="M100,148.75H230c9.67,0,17.5-7.83,17.5-17.5s-7.83-17.5-17.5-17.5H100c-9.67,0-17.5,7.83-17.5,17.5s7.83,17.5,17.5,17.5Z"/><path class="b" d="M412,193.75H100c-9.67,0-17.5,7.83-17.5,17.5s7.83,17.5,17.5,17.5H412c9.67,0,17.5-7.83,17.5-17.5s-7.83-17.5-17.5-17.5Z"/><path class="b" d="M412,273.75H100c-9.67,0-17.5,7.83-17.5,17.5s7.83,17.5,17.5,17.5H412c9.67,0,17.5-7.83,17.5-17.5s-7.83-17.5-17.5-17.5Z"/></svg>