<?xml version="1.0" encoding="UTF-8"?><svg id="a" xmlns="http://www.w3.org/2000/svg" viewBox="0 0 512 512"><defs><style>.b{fill:#363744;}</style></defs><path class="b" d="M250.77,160.57l53.72-53.72c-8.38-6.48-18.59-10.01-29.36-10.01-12.85,0-24.92,5-34.01,14.09l-16.23,16.23c12.24,7.66,21.41,19.39,25.87,33.42Z"/><path class="b" d="M131.7,435.95c-20.45-20.45-34.8-46.12-41.5-74.25-6.7-28.13-5.48-57.51,3.55-84.98l38.17-116.18c1.7-5.18,4.03-10.01,6.87-14.43-6.43-6.67-15.09-11.2-25.05-12.54-20.62-2.77-39.55,9.09-46.04,28.86l-38.17,116.18c-7.87,23.95-8.94,49.58-3.09,74.1,5.85,24.53,18.36,46.91,36.19,64.74l37.49,37.49c25.58,25.58,59.53,39.73,95.68,39.89-9.51-6.07-18.43-13.22-26.6-21.4l-37.48-37.49Z"/><path class="b" d="M493.38,273.88c-3.26-3.26-6.9-5.98-10.83-8.14,6.76-8.48,10.44-18.91,10.44-29.91,0-12.85-5-24.92-14.09-34.01-3.36-3.36-7.14-6.16-11.21-8.36,13.13-18.75,11.34-44.84-5.4-61.57-16.74-16.74-42.84-18.52-61.59-5.38-2.17-4.03-4.94-7.82-8.34-11.22-9.08-9.08-21.16-14.09-34.01-14.09s-24.92,5-34.01,14.09l-85.29,85.29c-.34,.34-1.15,1.15-2.67,.57-1.52-.58-1.57-1.72-1.6-2.21l-1.05-21.02c-1.04-20.78-16.17-37.22-36.78-39.99-20.62-2.77-39.55,9.09-46.04,28.86l-38.17,116.18c-7.87,23.95-8.94,49.58-3.09,74.1,5.85,24.53,18.36,46.91,36.19,64.74l37.48,37.49c25.73,25.73,59.94,39.9,96.33,39.9s70.6-14.17,96.33-39.9l117.4-117.4c9.08-9.08,14.09-21.16,14.09-34.01,0-12.85-5-24.92-14.09-34.01Z"/><path class="b" d="M375.85,71.69c1.52,.41,3.04,.6,4.54,.6,7.73,0,14.8-5.16,16.89-12.98l8.41-31.39c2.5-9.34-3.04-18.93-12.37-21.43-9.34-2.5-18.93,3.04-21.43,12.37l-8.41,31.39c-2.5,9.34,3.04,18.93,12.37,21.43Z"/><path class="b" d="M408.35,95.8c3.24,5.61,9.12,8.75,15.17,8.75,2.97,0,5.98-.76,8.73-2.35l28.15-16.25c8.37-4.83,11.24-15.54,6.41-23.91-4.83-8.37-15.54-11.24-23.91-6.41l-28.15,16.25c-8.37,4.83-11.24,15.54-6.41,23.91Z"/><path class="b" d="M311.75,69.91c3.24,5.61,9.12,8.75,15.17,8.75,2.97,0,5.98-.76,8.73-2.35,8.37-4.83,11.24-15.54,6.41-23.91l-16.25-28.15c-4.83-8.37-15.53-11.24-23.91-6.41-8.37,4.83-11.24,15.54-6.41,23.91l16.25,28.15Z"/></svg>