<?xml version="1.0" encoding="UTF-8"?><svg id="a" xmlns="http://www.w3.org/2000/svg" viewBox="0 0 512 512"><defs><style>.b{fill:#fff;}</style></defs><path class="b" d="M477.57,391.01l-52.68-91.25c16.6-28.69,26.11-62,26.11-97.53,0-107.7-87.3-195-195-195S61,94.54,61,202.24c0,35.53,9.51,68.84,26.11,97.53l-52.68,91.25c-12.98,22.48,4.33,50.35,30.24,48.68l34.71-2.24c13.09-.84,25.41,6.27,31.22,18.03l15.42,31.18c11.51,23.27,44.3,24.33,57.28,1.85l52.7-91.28h0l52.7,91.28c12.98,22.48,45.77,21.42,57.28-1.85l15.42-31.18c5.82-11.76,18.13-18.87,31.22-18.03l34.71,2.24c25.9,1.67,43.22-26.2,30.24-48.68ZM256,42.24c88.22,0,160,71.78,160,160,0,30.18-8.4,58.44-22.99,82.56h0c-.84,1.39-1.71,2.77-2.59,4.13-.08,.12-.16,.25-.25,.37-.77,1.18-1.55,2.34-2.34,3.49-.17,.25-.35,.5-.52,.76-.78,1.12-1.58,2.24-2.39,3.34-.11,.15-.22,.3-.33,.45-1.88,2.54-3.84,5.02-5.86,7.44-.17,.21-.35,.41-.52,.61-.86,1.02-1.74,2.03-2.63,3.03-.17,.19-.34,.38-.51,.57-2.11,2.36-4.29,4.65-6.54,6.88-.12,.12-.25,.24-.37,.36-.99,.98-2,1.94-3.02,2.9-.19,.18-.39,.36-.58,.54-1.09,1.01-2.2,2.01-3.32,2.99-.04,.04-.08,.07-.12,.11-2.41,2.11-4.89,4.14-7.42,6.1-.18,.14-.36,.28-.54,.41-1.13,.87-2.28,1.72-3.44,2.56-.12,.09-.25,.18-.37,.27-2.61,1.88-5.29,3.69-8.02,5.42-.11,.07-.22,.14-.33,.21-1.25,.79-2.51,1.56-3.79,2.31-.15,.09-.3,.18-.45,.27-4.18,2.46-8.49,4.73-12.9,6.8-.14,.06-.27,.13-.41,.19-4.46,2.08-9.02,3.96-13.69,5.63-.07,.03-.15,.05-.22,.08-1.5,.54-3.02,1.05-4.54,1.54-.07,.02-.14,.04-.2,.07-4.77,1.53-9.64,2.84-14.59,3.92-.09,.02-.17,.04-.26,.06-4.96,1.07-10,1.92-15.12,2.52-.07,0-.13,.02-.2,.02-5.15,.6-10.38,.95-15.66,1.05-.98,.02-1.95,.04-2.94,.04s-1.96-.02-2.94-.04c-5.29-.1-10.51-.45-15.66-1.05-.07,0-.13-.02-.2-.02-5.12-.6-10.16-1.45-15.12-2.52-.09-.02-.17-.04-.26-.06-4.95-1.08-9.82-2.39-14.59-3.92-.07-.02-.14-.04-.2-.07-1.52-.49-3.04-1-4.54-1.54-.08-.03-.15-.05-.23-.08-3.15-1.13-6.26-2.35-9.31-3.66h0c-1.47-.63-2.93-1.29-4.38-1.97-.14-.06-.27-.13-.4-.19-4.41-2.07-8.72-4.35-12.9-6.8-.15-.09-.3-.18-.46-.27-1.27-.75-2.53-1.52-3.78-2.3-.11-.07-.23-.14-.34-.21-2.73-1.73-5.4-3.53-8.01-5.42-.13-.09-.25-.18-.38-.27-1.16-.84-2.3-1.69-3.43-2.56-.18-.14-.36-.28-.54-.42-2.53-1.96-5.01-3.99-7.42-6.09-.04-.04-.09-.08-.13-.12-1.12-.98-2.22-1.98-3.32-2.99-.19-.18-.39-.36-.58-.54-1.02-.95-2.03-1.92-3.02-2.9-.12-.12-.25-.24-.37-.36-2.25-2.23-4.43-4.52-6.54-6.87-.17-.19-.34-.38-.51-.58-.89-1-1.76-2-2.62-3.02-.17-.21-.35-.41-.52-.62-2.02-2.42-3.98-4.9-5.86-7.43-.11-.15-.22-.3-.33-.46-.81-1.1-1.61-2.21-2.39-3.34-.18-.25-.35-.5-.53-.76-.79-1.15-1.58-2.32-2.34-3.49-.08-.13-.17-.25-.25-.38-.88-1.36-1.75-2.74-2.59-4.13-14.59-24.12-22.99-52.37-22.99-82.56,0-88.22,71.78-160,160-160Zm-80.67,424.73l-13.35-27c-11.46-23.18-34.64-37.58-60.5-37.58-1.45,0-2.91,.05-4.35,.14l-30.05,1.94,42.45-73.53c27.72,31.52,65.45,54.03,108.23,62.53l-42.43,73.49Zm239.55-64.44c-1.44-.09-2.91-.14-4.35-.14-25.85,0-49.04,14.4-60.5,37.58l-13.35,27-42.43-73.49c42.78-8.51,80.51-31.01,108.23-62.53l42.45,73.53-30.06-1.94Z"/><path class="b" d="M164.08,189.58l31.24,23.69c5.42,4.11,7.7,11.15,5.74,17.65l-11.35,37.53c-4.46,14.75,12.19,26.84,24.84,18.04l32.18-22.39c5.58-3.88,12.98-3.88,18.56,0l32.18,22.39c12.65,8.8,29.3-3.3,24.84-18.04l-11.35-37.53c-1.97-6.51,.32-13.55,5.74-17.65l31.24-23.69c12.28-9.31,5.92-28.88-9.49-29.2l-39.2-.8c-6.8-.14-12.79-4.49-15.02-10.91l-12.87-37.03c-5.06-14.55-25.64-14.55-30.7,0l-12.87,37.03c-2.23,6.42-8.22,10.77-15.02,10.91l-39.2,.8c-15.4,.31-21.76,19.89-9.49,29.2Z"/></svg>