<?xml version="1.0" encoding="UTF-8"?><svg id="a" xmlns="http://www.w3.org/2000/svg" viewBox="0 0 512 512"><defs><style>.b{fill:#363744;}</style></defs><path class="b" d="M419.39,334.7c-35.72,28.82-79.03,44.05-125.26,44.05-53.42,0-103.65-20.8-141.42-58.58-37.78-37.78-58.58-88-58.58-141.42,0-46.23,15.23-89.55,44.05-125.27,9.54-11.82,7.69-29.13-4.13-38.67-11.82-9.54-29.13-7.68-38.67,4.13-36.8,45.61-56.25,100.87-56.25,159.8,0,68.11,26.52,132.15,74.69,180.31,41.62,41.62,95.1,67.06,152.81,73.21v24.72h-70c-15.19,0-27.5,12.31-27.5,27.5s12.31,27.5,27.5,27.5h195c15.19,0,27.5-12.31,27.5-27.5s-12.31-27.5-27.5-27.5h-70v-24.69c48.57-5.11,93.86-23.8,132.3-54.81,11.82-9.54,13.67-26.85,4.14-38.67-9.54-11.82-26.85-13.67-38.67-4.14Z"/><circle class="b" cx="294.12" cy="178.75" r="178.75"/></svg>