<?xml version="1.0" encoding="UTF-8"?><svg id="a" xmlns="http://www.w3.org/2000/svg" viewBox="0 0 512 512"><defs><style>.b{fill:#363744;}</style></defs><path class="b" d="M119.44,373.54c-21.42-2.75-40.81-12.28-56.07-27.55-18.28-18.28-28.35-42.63-28.35-68.56s10.07-50.28,28.35-68.56l93.54-93.54c37.8-37.8,99.32-37.8,137.12,0,18.28,18.28,28.35,42.63,28.35,68.56s-10.07,50.28-28.35,68.56l-67.95,67.95c-6.84,6.84-6.84,17.93,0,24.77,6.84,6.84,17.93,6.84,24.77,0l67.95-67.95c24.89-24.89,38.6-58.04,38.6-93.33s-13.71-68.43-38.6-93.33c-51.46-51.46-135.19-51.46-186.65,0L38.6,184.1C13.71,209,0,242.14,0,277.43s13.71,68.43,38.6,93.33c20.79,20.79,47.2,33.77,76.37,37.52,.76,.1,1.51,.14,2.26,.14,8.68,0,16.21-6.45,17.35-15.28,1.23-9.59-5.54-18.37-15.14-19.6Z"/><path class="b" d="M473.4,141.24c-20.79-20.79-47.2-33.77-76.37-37.52-9.59-1.24-18.37,5.54-19.6,15.14-1.23,9.59,5.54,18.37,15.14,19.6,21.42,2.75,40.81,12.28,56.07,27.55,37.8,37.8,37.8,99.32,0,137.12l-93.54,93.53c-37.8,37.8-99.32,37.8-137.12,0-18.28-18.28-28.35-42.63-28.35-68.56s10.07-50.28,28.35-68.56l67.95-67.95c6.84-6.84,6.84-17.93,0-24.77-6.84-6.84-17.93-6.84-24.77,0l-67.95,67.95c-24.89,24.89-38.6,58.04-38.6,93.33s13.71,68.43,38.6,93.33c25.73,25.73,59.52,38.6,93.33,38.6,33.79,0,67.6-12.87,93.33-38.6l93.54-93.53c51.46-51.46,51.46-135.19,0-186.65Z"/></svg>