<?xml version="1.0" encoding="UTF-8"?><svg id="a" xmlns="http://www.w3.org/2000/svg" viewBox="0 0 512 512"><defs><style>.b{fill:#363744;}</style></defs><path class="b" d="M227.5,0C101.86,0,0,101.86,0,227.5s101.86,227.5,227.5,227.5,227.5-101.86,227.5-227.5S353.14,0,227.5,0Zm0,420c-106.15,0-192.5-86.36-192.5-192.5S121.35,35,227.5,35s192.5,86.35,192.5,192.5-86.35,192.5-192.5,192.5Z"/><path class="b" d="M494.5,512c-4.48,0-8.96-1.71-12.37-5.13l-70.78-70.78c-6.83-6.83-6.83-17.91,0-24.75s17.91-6.83,24.75,0l70.78,70.78c6.83,6.83,6.83,17.91,0,24.75-3.42,3.42-7.9,5.13-12.37,5.13Z"/></svg>