<?xml version="1.0" encoding="UTF-8"?><svg id="a" xmlns="http://www.w3.org/2000/svg" viewBox="0 0 512 512"><defs><style>.b{fill:#363744;}</style></defs><path class="b" d="M126.53,357.98c-18.15-2.33-34.58-10.4-47.51-23.34-15.49-15.49-24.02-36.12-24.02-58.11s8.53-42.62,24.02-58.11l89.62-89.62c15.49-15.49,36.12-24.02,58.11-24.02s42.62,8.53,58.11,24.02c15.49,15.49,24.02,36.12,24.02,58.11s-8.53,42.62-24.02,58.11l-65.1,65.1c-10.74,10.74-10.74,28.15,0,38.89,10.74,10.74,28.15,10.74,38.89,0l65.1-65.1c25.88-25.88,40.13-60.32,40.13-97s-14.25-71.12-40.13-97c-53.48-53.49-140.51-53.49-194,0L40.13,179.53C14.25,205.41,0,239.86,0,276.53c0,36.67,14.25,71.12,40.13,97,21.61,21.61,49.07,35.1,79.39,39,1.19,.15,2.37,.23,3.54,.23,13.63,0,25.46-10.12,27.24-24,1.94-15.06-8.7-28.85-23.77-30.78Z"/><path class="b" d="M471.87,138.47c-21.61-21.61-49.07-35.1-79.39-39-15.07-1.94-28.85,8.7-30.78,23.77-1.94,15.06,8.7,28.85,23.77,30.78,18.15,2.33,34.58,10.4,47.51,23.34,15.49,15.49,24.02,36.12,24.02,58.11s-8.53,42.62-24.02,58.11l-89.62,89.62c-15.49,15.49-36.12,24.02-58.11,24.02s-42.62-8.53-58.11-24.02c-15.49-15.49-24.02-36.12-24.02-58.11s8.53-42.62,24.02-58.11l65.1-65.1c10.74-10.74,10.74-28.15,0-38.89-10.74-10.74-28.15-10.74-38.89,0l-65.1,65.1c-53.48,53.48-53.48,140.51,0,194,26.74,26.74,61.87,40.11,97,40.11s70.26-13.37,97-40.11l89.62-89.62c25.88-25.88,40.13-60.32,40.13-97,0-36.67-14.25-71.12-40.13-97Z"/></svg>