<?xml version="1.0" encoding="UTF-8"?><svg id="a" xmlns="http://www.w3.org/2000/svg" viewBox="0 0 512 512"><defs><style>.b{fill:#363744;}</style></defs><path class="b" d="M465.12,328.26l-26.27-41.23c-13.3-20.87-20.36-45.1-20.36-69.85v-20.63c0-68.1-41.51-127.06-100.71-151.73C309.3,18.81,284.85,0,256,0s-53.19,18.72-61.73,44.65c-59.13,24.3-100.77,82.46-100.77,150.35v22.18c0,24.75-7.06,48.98-20.36,69.85l-26.27,41.23c-22.44,35.22-6.27,82.02,33.02,96.16,27.07,9.74,55.18,17.29,84.12,22.46,13.35,37.93,49.49,65.12,91.99,65.12s78.63-27.19,91.99-65.12c28.94-5.17,57.05-12.72,84.12-22.46,39.29-14.14,55.46-60.94,33.02-96.16Zm-209.12,148.74c-20.1,0-38-9.54-49.44-24.33,16.27,1.53,32.76,2.33,49.44,2.33s33.16-.79,49.44-2.33c-11.44,14.79-29.34,24.33-49.44,24.33Zm182.69-104.21c-2.98,8.74-9.71,15.56-18.44,18.7-21.85,7.86-44.18,14.09-66.85,18.71-2.69,.55-5.38,1.07-8.08,1.57-.43,.08-.87,.16-1.3,.24-2.41,.44-4.83,.87-7.25,1.28-.94,.16-1.89,.31-2.83,.46-2.03,.33-4.07,.66-6.11,.96-1.68,.25-3.36,.48-5.03,.71-1.45,.2-2.89,.41-4.34,.6-20.61,2.65-41.45,3.98-62.46,3.98s-41.85-1.33-62.46-3.98c-1.45-.19-2.89-.4-4.34-.6-1.68-.23-3.36-.46-5.03-.71-2.04-.3-4.08-.63-6.11-.96-.94-.15-1.88-.3-2.82-.46-2.42-.41-4.84-.83-7.25-1.28-.43-.08-.87-.16-1.3-.24-2.7-.5-5.39-1.03-8.08-1.57-22.67-4.62-45-10.85-66.85-18.71-8.73-3.14-15.45-9.96-18.44-18.7-1.73-5.08-3.64-15.17,3.08-25.73l26.27-41.23c16.91-26.54,25.84-57.19,25.84-88.65v-22.18c0-47.72,26.35-89.39,65.26-111.24,4.57-2.57,9.31-4.86,14.21-6.86,.07-.03,.13-.05,.2-.08,3.6-1.46,7.28-2.76,11.03-3.9,.18-.05,.35-.1,.53-.16,1.09-.32,2.18-.63,3.28-.93,.16-.04,.32-.09,.48-.13,2.48-.65,4.98-1.23,7.51-1.74,.25-.05,.5-.1,.75-.14,.99-.19,1.99-.37,2.99-.54,.32-.05,.64-.11,.97-.16,1.05-.17,2.1-.32,3.16-.47,.21-.03,.41-.06,.62-.09,1.26-.16,2.53-.31,3.8-.44,.25-.03,.51-.04,.76-.07,1-.09,2.01-.18,3.02-.25,.4-.03,.81-.05,1.21-.08,.91-.05,1.83-.1,2.74-.13,.38-.01,.77-.03,1.15-.04,1.27-.04,2.55-.06,3.83-.06,1.28,0,2.56,.03,3.83,.07,.38,.01,.77,.03,1.15,.05,.92,.04,1.83,.08,2.74,.14,.41,.02,.81,.05,1.21,.08,1,.07,2,.15,3,.25,.26,.02,.52,.04,.78,.07,1.27,.13,2.54,.28,3.8,.44,.2,.03,.4,.06,.61,.09,1.06,.15,2.11,.3,3.17,.47,.32,.05,.65,.11,.97,.16,1,.17,1.99,.35,2.98,.55,.26,.05,.51,.1,.77,.15,2.53,.51,5.03,1.1,7.51,1.76,.15,.04,.3,.08,.46,.13,1.1,.3,2.2,.61,3.29,.94,.18,.05,.35,.11,.53,.16,3.75,1.15,7.43,2.46,11.03,3.94,.06,.02,.12,.05,.18,.07,4.89,2.02,9.64,4.34,14.21,6.93h0c38.95,22.12,65.31,64.31,65.31,112.61v20.63c0,31.46,8.94,62.12,25.84,88.65l26.27,41.23c6.72,10.55,4.82,20.65,3.08,25.73Z"/></svg>