<?xml version="1.0" encoding="UTF-8"?><svg id="a" xmlns="http://www.w3.org/2000/svg" viewBox="0 0 512 512"><defs><style>.b{fill:#fff;}</style></defs><path class="b" d="M420.67,350.61c-37.52,30.27-83,46.27-131.54,46.27-56.09,0-108.83-21.84-148.49-61.51-39.66-39.67-61.51-92.4-61.51-148.49,0-48.54,16-94.03,46.27-131.55,6.07-7.52,4.89-18.54-2.63-24.61-7.52-6.07-18.54-4.89-24.61,2.63-35.35,43.81-54.03,96.9-54.03,153.52,0,65.44,25.48,126.97,71.76,173.24,42.13,42.12,96.89,67.01,155.74,71.14v37.62h-80c-9.67,0-17.5,7.83-17.5,17.5s7.83,17.5,17.5,17.5h195c9.67,0,17.5-7.83,17.5-17.5s-7.83-17.5-17.5-17.5h-80v-37.61c50.04-3.45,96.75-21.74,136.02-53.41,7.52-6.07,8.7-17.09,2.63-24.61-6.07-7.52-17.09-8.7-24.61-2.63Z"/><path class="b" d="M289.12,365.62c98.72,0,178.75-80.03,178.75-178.75S387.85,8.12,289.12,8.12,110.38,88.15,110.38,186.88s80.03,178.75,178.75,178.75Zm0-322.5c79.26,0,143.75,64.49,143.75,143.75s-64.49,143.75-143.75,143.75-143.75-64.49-143.75-143.75S209.86,43.12,289.12,43.12Z"/></svg>