<?xml version="1.0" encoding="UTF-8"?><svg id="a" xmlns="http://www.w3.org/2000/svg" viewBox="0 0 512 512"><defs><style>.b{fill:#363744;}</style></defs><path class="b" d="M465.12,328.26l-26.27-41.23c-13.3-20.87-20.36-45.1-20.36-69.85v-20.63c0-68.1-41.51-127.06-100.71-151.73C309.3,18.81,284.85,0,256,0s-53.19,18.72-61.73,44.65c-59.13,24.3-100.77,82.46-100.77,150.35v22.18c0,24.75-7.06,48.98-20.36,69.85l-26.27,41.23c-22.44,35.22-6.27,82.02,33.02,96.16,27.07,9.74,55.18,17.29,84.12,22.46,13.35,37.93,49.49,65.12,91.99,65.12s78.63-27.19,91.99-65.12c28.94-5.17,57.05-12.72,84.12-22.46,39.29-14.14,55.46-60.94,33.02-96.16Zm-209.12,148.74c-20.1,0-38-9.54-49.44-24.33,16.27,1.53,32.76,2.33,49.44,2.33s33.16-.79,49.44-2.33c-11.44,14.79-29.34,24.33-49.44,24.33Z"/></svg>