<?xml version="1.0" encoding="UTF-8"?><svg id="a" xmlns="http://www.w3.org/2000/svg" viewBox="0 0 512 512"><defs><style>.b{fill:#fff;}</style></defs><circle class="b" cx="256" cy="256" r="62.5"/><path class="b" d="M472,174.75h-40.63c-15.4,0-25.02-16.67-17.32-30l20.31-35.19c11.05-19.13,4.49-43.6-14.64-54.64L348.28,13.67c-19.13-11.05-43.6-4.49-54.64,14.64l-20.31,35.19c-7.7,13.33-26.94,13.33-34.64,0l-20.31-35.19c-11.05-19.13-35.51-25.69-54.64-14.64L92.28,54.92c-19.13,11.05-25.69,35.51-14.64,54.64l20.31,35.19c7.7,13.33-1.92,30-17.32,30H40c-22.09,0-40,17.91-40,40v82.5c0,22.09,17.91,40,40,40h40.63c15.4,0,25.02,16.67,17.32,30l-20.31,35.19c-11.05,19.13-4.49,43.6,14.64,54.64l71.45,41.25c19.13,11.05,43.6,4.49,54.64-14.64l20.31-35.19c7.7-13.33,26.94-13.33,34.64,0l20.31,35.19c11.05,19.13,35.51,25.69,54.64,14.64l71.45-41.25c19.13-11.05,25.69-35.51,14.64-54.64l-20.31-35.19c-7.7-13.33,1.92-30,17.32-30h40.63c22.09,0,40-17.91,40-40v-82.5c0-22.09-17.91-40-40-40Zm-216,178.75c-53.85,0-97.5-43.65-97.5-97.5s43.65-97.5,97.5-97.5,97.5,43.65,97.5,97.5-43.65,97.5-97.5,97.5Z"/></svg>