<?xml version="1.0" encoding="UTF-8"?><svg id="a" xmlns="http://www.w3.org/2000/svg" viewBox="0 0 512 512"><defs><style>.b{fill:#363744;}</style></defs><path class="b" d="M256,158.5c-53.85,0-97.5,43.65-97.5,97.5s43.65,97.5,97.5,97.5,97.5-43.65,97.5-97.5-43.65-97.5-97.5-97.5Zm0,160c-34.46,0-62.5-28.04-62.5-62.5s28.04-62.5,62.5-62.5,62.5,28.04,62.5,62.5-28.04,62.5-62.5,62.5Z"/><path class="b" d="M472,174.75h-40.63c-15.4,0-25.02-16.67-17.32-30l20.31-35.19c11.05-19.13,4.49-43.6-14.64-54.64L348.28,13.67c-19.13-11.05-43.6-4.49-54.64,14.64l-20.31,35.19c-7.7,13.33-26.94,13.33-34.64,0l-20.31-35.19c-11.05-19.13-35.51-25.69-54.64-14.64L92.28,54.92c-19.13,11.05-25.69,35.51-14.64,54.64l20.31,35.19c7.7,13.33-1.92,30-17.32,30H40c-22.09,0-40,17.91-40,40v82.5c0,22.09,17.91,40,40,40h40.63c15.4,0,25.02,16.67,17.32,30l-20.31,35.19c-11.05,19.13-4.49,43.6,14.64,54.64l71.45,41.25c19.13,11.05,43.6,4.49,54.64-14.64l20.31-35.19c7.7-13.33,26.94-13.33,34.64,0l20.31,35.19c11.05,19.13,35.51,25.69,54.64,14.64l71.45-41.25c19.13-11.05,25.69-35.51,14.64-54.64l-20.31-35.19c-7.7-13.33,1.92-30,17.32-30h40.63c22.09,0,40-17.91,40-40v-82.5c0-22.09-17.91-40-40-40Zm5,122.5c0,2.76-2.24,5-5,5h-40.63c-19.59,0-37.84,10.54-47.63,27.5-9.79,16.96-9.79,38.04,0,55l20.31,35.19c.86,1.48,.74,2.88,.5,3.79-.24,.91-.85,2.18-2.33,3.04l-71.45,41.25c-.79,.46-1.59,.68-2.46,.68-.69,0-3.02-.18-4.37-2.51l-20.31-35.19c-9.79-16.96-28.04-27.5-47.63-27.5s-37.84,10.54-47.63,27.5l-20.31,35.19c-1.34,2.33-3.68,2.51-4.37,2.51-.87,0-1.67-.22-2.46-.68l-71.45-41.25c-1.48-.86-2.08-2.12-2.33-3.04-.24-.91-.36-2.31,.5-3.79l20.31-35.19c9.79-16.96,9.79-38.04,0-55-9.79-16.96-28.04-27.5-47.63-27.5H40c-2.76,0-5-2.24-5-5v-82.5c0-2.76,2.24-5,5-5h40.63c19.59,0,37.84-10.54,47.63-27.5,9.79-16.96,9.79-38.04,0-55l-20.31-35.19c-1.38-2.39-.56-5.45,1.83-6.83l71.45-41.25c.79-.46,1.59-.68,2.46-.68,.69,0,3.02,.18,4.37,2.51l20.31,35.19c9.79,16.96,28.04,27.5,47.63,27.5s37.84-10.54,47.63-27.5l20.31-35.19c1.34-2.33,3.68-2.51,4.37-2.51,.87,0,1.67,.22,2.46,.68l71.45,41.25c2.39,1.38,3.21,4.44,1.83,6.83l-20.31,35.19c-9.79,16.96-9.79,38.04,0,55,9.79,16.96,28.04,27.5,47.63,27.5h40.63c2.76,0,5,2.24,5,5v82.5Z"/></svg>