<?xml version="1.0" encoding="UTF-8"?><svg id="a" xmlns="http://www.w3.org/2000/svg" viewBox="0 0 512 512"><defs><style>.b{fill:#363744;}</style></defs><path class="b" d="M493.38,273.88c-3.26-3.26-6.9-5.98-10.83-8.14,6.76-8.48,10.44-18.91,10.44-29.91,0-12.85-5-24.92-14.09-34.01-3.36-3.36-7.14-6.16-11.21-8.36,13.13-18.75,11.34-44.84-5.4-61.57-16.74-16.74-42.84-18.52-61.59-5.38-2.17-4.03-4.94-7.82-8.34-11.22-9.08-9.08-21.16-14.09-34.01-14.09s-24.92,5-34.01,14.09l-6.86,6.86c-2.17-4.03-4.94-7.82-8.34-11.22-9.08-9.08-21.16-14.09-34.01-14.09s-24.92,5-34.01,14.09l-30.96,30.96c-4.05-1.96-8.49-3.33-13.22-3.96-20.62-2.77-39.55,9.09-46.04,28.86l-17.05,51.91,16.23-49.4c-2.76-18.72-17.18-33.14-36.36-35.72-20.62-2.77-39.55,9.09-46.04,28.86l-38.17,116.18c-7.87,23.95-8.94,49.58-3.09,74.1,5.85,24.53,18.36,46.91,36.19,64.74l37.49,37.49c25.73,25.73,59.94,39.9,96.33,39.9,11.91,0,23.58-1.53,34.8-4.47,15.26,5.79,31.61,8.82,48.42,8.82,36.39,0,70.6-14.17,96.33-39.9l117.4-117.4c9.08-9.08,14.09-21.16,14.09-34.01,0-12.85-5-24.92-14.09-34.01Zm-227.5-138.2c2.47-2.47,5.76-3.84,9.26-3.84s6.79,1.36,9.26,3.84c5.1,5.1,5.11,13.41,0,18.52l-47.14,47.14c-.26-.02-.55-.07-.87-.19-1.52-.58-1.57-1.72-1.6-2.21l-1.05-21.02c-.15-3.03-.61-5.96-1.33-8.77h0l33.47-33.47Zm-26.82,64.9c-.06,.06-.15,.14-.24,.22,.1-.08,.18-.16,.24-.22Zm-.27,.25c-.32,.27-.81,.55-1.53,.51,.72,.04,1.21-.25,1.53-.51Zm-8.63-38.2l-.02-.04,.02,.04Zm-4.51-7.83l-.03-.04,.03,.04Zm-1.39-1.8h0Zm-12.04-10.05l-.04-.02,.04,.02Zm7.38,5.21l-.03-.03,.03,.03Zm-36.68,310.73c-21.25-2.84-41.77-12.4-58.07-28.7l-37.49-37.49c-27.16-27.16-36.58-66.69-24.59-103.17l38.17-116.18c1.69-5.15,5.82-5.4,8.12-5.09,2.31,.31,6.22,1.64,6.49,7.06l1.05,21.01c.58,11.63,6.24,21.85,15.27,28.38l-19.14,58.25c-7.87,23.95-8.94,49.58-3.09,74.1,5.85,24.53,18.36,46.91,36.19,64.74l37.48,37.49-.4-.4Zm2.94,2.88c.27,.26,.55,.51,.82,.76-.27-.25-.55-.5-.82-.76Zm2.59,2.4c.32,.29,.65,.57,.97,.86-.32-.29-.65-.57-.97-.86Zm2.65,2.33c.34,.29,.68,.58,1.02,.86-.34-.29-.68-.57-1.02-.86Zm2.71,2.26c.34,.28,.69,.56,1.04,.83-.35-.28-.69-.55-1.04-.83Zm21.15,14.16s.05,.03,.08,.05c-.03-.01-.05-.03-.08-.05Zm-18.38-11.96c.34,.26,.68,.52,1.03,.78-.34-.26-.69-.52-1.03-.78Zm2.83,2.13c.33,.24,.66,.48,.99,.72-.33-.24-.66-.48-.99-.72Zm2.9,2.06c.31,.22,.63,.43,.94,.65-.31-.21-.63-.43-.94-.65Zm2.97,2c.28,.18,.57,.37,.85,.55-.28-.18-.57-.37-.85-.55Zm3.07,1.95c.24,.15,.47,.29,.71,.44-.24-.14-.47-.29-.71-.44Zm3.19,1.91c.16,.09,.32,.19,.49,.28-.16-.09-.32-.19-.49-.28Zm257.07-163.86l-117.4,117.4c-19.12,19.12-44.54,29.65-71.58,29.65s-52.46-10.53-71.58-29.65l-37.48-37.49c-27.16-27.16-36.58-66.69-24.59-103.17l38.17-116.18c1.69-5.15,5.82-5.4,8.12-5.09,2.31,.31,6.22,1.64,6.49,7.06l1.05,21.01c.75,15.02,9.94,27.71,23.97,33.12,14.04,5.4,29.36,2.16,40-8.48l85.29-85.29c2.47-2.47,5.76-3.84,9.26-3.84s6.79,1.36,9.26,3.84c5.1,5.1,5.11,13.41,0,18.51l-92.27,92.27c-6.83,6.83-6.83,17.91,0,24.75s17.92,6.83,24.75,0l10.7-10.7h0l81.56-81.56h.01l26.65-26.66c5.11-5.11,13.41-5.11,18.52,0,5.11,5.11,5.11,13.41,0,18.52l-26.66,26.66h0l-41.5,41.5h0l-50.76,50.76c-6.83,6.83-6.83,17.91,0,24.75,3.42,3.42,7.9,5.13,12.37,5.13s8.96-1.71,12.37-5.13l50.76-50.76h0l41.5-41.5c5.1-5.11,13.41-5.11,18.52,0,5.11,5.11,5.11,13.41,0,18.52l-41.5,41.5h0l-50.76,50.76c-6.83,6.83-6.83,17.91,0,24.75s17.91,6.83,24.75,0l63.47-63.47c2.47-2.47,5.76-3.83,9.26-3.83s6.79,1.36,9.26,3.84c2.47,2.47,3.83,5.76,3.83,9.26s-1.36,6.79-3.84,9.26Z"/><path class="b" d="M375.85,71.69c1.52,.41,3.04,.6,4.54,.6,7.73,0,14.8-5.16,16.89-12.98l8.41-31.39c2.5-9.34-3.04-18.93-12.37-21.43-9.34-2.5-18.93,3.04-21.43,12.37l-8.41,31.39c-2.5,9.34,3.04,18.93,12.37,21.43Z"/><path class="b" d="M408.35,95.8c3.24,5.61,9.12,8.75,15.17,8.75,2.97,0,5.98-.76,8.73-2.35l28.15-16.25c8.37-4.83,11.24-15.54,6.41-23.91-4.83-8.37-15.54-11.24-23.91-6.41l-28.15,16.25c-8.37,4.83-11.24,15.54-6.41,23.91Z"/><path class="b" d="M311.75,69.91c3.24,5.61,9.12,8.75,15.17,8.75,2.97,0,5.98-.76,8.73-2.35,8.37-4.83,11.24-15.54,6.41-23.91l-16.25-28.15c-4.83-8.37-15.53-11.24-23.91-6.41-8.37,4.83-11.24,15.54-6.41,23.91l16.25,28.15Z"/></svg>