<?xml version="1.0" encoding="UTF-8"?><svg id="a" xmlns="http://www.w3.org/2000/svg" viewBox="0 0 512 512"><defs><style>.b{fill:#363744;}</style></defs><path class="b" d="M279.79,139.63c-111.91,0-186.68,80.99-186.68,184.7s73.78,187.67,185.69,187.67,186.68-83.46,186.68-187.67-72.79-184.7-185.69-184.7Zm83.93,269.02c-21.04,21.81-50.4,33.35-84.92,33.35s-63.2-11.61-84.11-33.57c-20.37-21.4-31.58-51.26-31.58-84.09s11.1-61.65,31.27-82.15c20.96-21.3,50.49-32.56,85.41-32.56s65.14,10.82,85.33,31.3c19.86,20.15,30.36,48.99,30.36,83.4s-11.28,63.08-31.76,84.32Z"/><path class="b" d="M117.23,164.13c41.42-41.37,98.57-64.13,162.06-64.13V0h0c-90.23,0-172.47,33.15-232.77,93.42l70.71,70.71Z"/></svg>