<?xml version="1.0" encoding="UTF-8"?><svg id="a" xmlns="http://www.w3.org/2000/svg" viewBox="0 0 512 512"><defs><style>.b{fill:#363744;}</style></defs><path class="b" d="M256,230c-63.41,0-115-51.59-115-115S192.59,0,256,0s115,51.59,115,115-51.59,115-115,115Zm0-195c-44.11,0-80,35.89-80,80s35.89,80,80,80,80-35.89,80-80-35.89-80-80-80Z"/><path class="b" d="M433.5,504.5c-9.67,0-17.5-7.83-17.5-17.5,0-88.22-71.78-160-160-160s-160,71.78-160,160c0,9.67-7.83,17.5-17.5,17.5s-17.5-7.83-17.5-17.5c0-107.52,87.48-195,195-195s195,87.48,195,195c0,9.67-7.83,17.5-17.5,17.5Z"/></svg>