<?xml version="1.0" encoding="UTF-8"?><svg id="a" xmlns="http://www.w3.org/2000/svg" viewBox="0 0 512 512"><defs><style>.b{fill:#363744;}</style></defs><path class="b" d="M424.48,203.61h0L164.48,12.61h0C153.71,4.68,140.4,0,126,0,90.1,0,61,29.1,61,65V447c0,35.9,29.1,65,65,65,14.4,0,27.71-4.68,38.48-12.61h0l260-191h0c16.08-11.83,26.52-30.89,26.52-52.39s-10.43-40.55-26.52-52.39Zm-20.74,76.59L143.76,471.18c-5.18,3.81-11.32,5.82-17.76,5.82-16.54,0-30-13.46-30-30V65c0-16.54,13.46-30,30-30,6.45,0,12.58,2.01,17.74,5.8L403.76,231.82c7.77,5.72,12.24,14.53,12.24,24.18s-4.47,18.46-12.26,24.2Z"/></svg>