<?xml version="1.0" encoding="UTF-8"?><svg id="a" xmlns="http://www.w3.org/2000/svg" viewBox="0 0 512 512"><defs><style>.b{fill:#fff;}</style></defs><path class="b" d="M484.5,512c-7.04,0-14.08-2.68-19.45-8.05l-53.71-53.71c-10.74-10.74-10.74-28.15,0-38.89,10.74-10.74,28.15-10.74,38.89,0l53.71,53.71c10.74,10.74,10.74,28.15,0,38.89-5.37,5.37-12.41,8.05-19.45,8.05Z"/><path class="b" d="M227.5,0C101.86,0,0,101.86,0,227.5s101.86,227.5,227.5,227.5,227.5-101.86,227.5-227.5S353.14,0,227.5,0Zm0,400c-95.12,0-172.5-77.38-172.5-172.5S132.38,55,227.5,55s172.5,77.38,172.5,172.5-77.38,172.5-172.5,172.5Z"/></svg>