<?xml version="1.0" encoding="UTF-8"?><svg id="a" xmlns="http://www.w3.org/2000/svg" viewBox="0 0 512 512"><defs><style>.b{fill:#fff;}</style></defs><circle class="b" cx="256" cy="256" r="62.5"/><path class="b" d="M477,191h-15.79c-17.82,0-26.74-21.54-14.14-34.14l11.17-11.17c13.67-13.67,13.67-35.83,0-49.5l-42.43-42.43c-13.67-13.67-35.83-13.67-49.5,0l-11.17,11.17c-12.6,12.6-34.14,3.68-34.14-14.14v-15.79c0-19.33-15.67-35-35-35h-60c-19.33,0-35,15.67-35,35v15.79c0,17.82-21.54,26.74-34.14,14.14l-11.17-11.17c-13.67-13.67-35.83-13.67-49.5,0l-42.43,42.43c-13.67,13.67-13.67,35.83,0,49.5l11.17,11.17c12.6,12.6,3.68,34.14-14.14,34.14h-15.79c-19.33,0-35,15.67-35,35v60c0,19.33,15.67,35,35,35h15.79c17.82,0,26.74,21.54,14.14,34.14l-11.17,11.17c-13.67,13.67-13.67,35.83,0,49.5l42.43,42.43c13.67,13.67,35.83,13.67,49.5,0l11.17-11.17c12.6-12.6,34.14-3.68,34.14,14.14v15.79c0,19.33,15.67,35,35,35h60c19.33,0,35-15.67,35-35v-15.79c0-17.82,21.54-26.74,34.14-14.14l11.17,11.17c13.67,13.67,35.83,13.67,49.5,0l42.43-42.43c13.67-13.67,13.67-35.83,0-49.5l-11.17-11.17c-12.6-12.6-3.68-34.14,14.14-34.14h15.79c19.33,0,35-15.67,35-35v-60c0-19.33-15.67-35-35-35Zm-221,162.5c-53.85,0-97.5-43.65-97.5-97.5s43.65-97.5,97.5-97.5,97.5,43.65,97.5,97.5-43.65,97.5-97.5,97.5Z"/></svg>