<?xml version="1.0" encoding="UTF-8"?><svg id="a" xmlns="http://www.w3.org/2000/svg" viewBox="0 0 512 512"><defs><style>.b{fill:#fff;}</style></defs><path class="b" d="M256,158.5c-53.85,0-97.5,43.65-97.5,97.5s43.65,97.5,97.5,97.5,97.5-43.65,97.5-97.5-43.65-97.5-97.5-97.5Zm0,160c-34.46,0-62.5-28.04-62.5-62.5s28.04-62.5,62.5-62.5,62.5,28.04,62.5,62.5-28.04,62.5-62.5,62.5Z"/><path class="b" d="M477,191h-15.79c-17.82,0-26.74-21.54-14.14-34.14l11.17-11.17c13.67-13.67,13.67-35.83,0-49.5l-42.43-42.43c-13.67-13.67-35.83-13.67-49.5,0l-11.17,11.17c-12.6,12.6-34.14,3.68-34.14-14.14v-15.79c0-19.33-15.67-35-35-35h-60c-19.33,0-35,15.67-35,35v15.79c0,17.82-21.54,26.74-34.14,14.14l-11.17-11.17c-13.67-13.67-35.83-13.67-49.5,0l-42.43,42.43c-13.67,13.67-13.67,35.83,0,49.5l11.17,11.17c12.6,12.6,3.68,34.14-14.14,34.14h-15.79c-19.33,0-35,15.67-35,35v60c0,19.33,15.67,35,35,35h15.79c17.82,0,26.74,21.54,14.14,34.14l-11.17,11.17c-13.67,13.67-13.67,35.83,0,49.5l42.43,42.43c13.67,13.67,35.83,13.67,49.5,0l11.17-11.17c12.6-12.6,34.14-3.68,34.14,14.14v15.79c0,19.33,15.67,35,35,35h60c19.33,0,35-15.67,35-35v-15.79c0-17.82,21.54-26.74,34.14-14.14l11.17,11.17c13.67,13.67,35.83,13.67,49.5,0l42.43-42.43c13.67-13.67,13.67-35.83,0-49.5l-11.17-11.17c-12.6-12.6-3.68-34.14,14.14-34.14h15.79c19.33,0,35-15.67,35-35v-60c0-19.33-15.67-35-35-35Zm0,95h-15.79c-22.32,0-42.27,13.33-50.81,33.95s-3.86,44.15,11.92,59.94l11.17,11.17-42.43,42.43-11.17-11.17c-10.41-10.41-24.17-16.15-38.75-16.15-30.41,0-55.14,24.69-55.14,55.04v15.79h-60v-15.79c0-30.35-24.74-55.04-55.14-55.04-14.57,0-28.33,5.74-38.75,16.15l-11.17,11.17-42.43-42.43,11.17-11.17c15.79-15.79,20.47-39.31,11.92-59.94s-28.49-33.95-50.81-33.95h-15.79v-60h15.79c22.32,0,42.27-13.33,50.81-33.95,8.54-20.62,3.86-44.15-11.92-59.94l-11.17-11.17,42.43-42.43,11.17,11.17c10.42,10.42,24.18,16.15,38.75,16.15,30.4,0,55.14-24.69,55.14-55.04v-15.79h60v15.79c0,15.44,6.15,29.69,17.33,40.12,10.3,9.62,23.73,14.92,37.82,14.92,14.57,0,28.33-5.74,38.75-16.15l11.17-11.17,42.43,42.43-11.17,11.17c-15.79,15.79-20.47,39.31-11.92,59.94,8.54,20.63,28.49,33.95,50.81,33.95h15.79v60Z"/></svg>