<?xml version="1.0" encoding="UTF-8"?><svg id="a" xmlns="http://www.w3.org/2000/svg" viewBox="0 0 512 512"><defs><style>.b{fill:#fff;}</style></defs><path class="b" d="M354.77,61.89c-16.79-14.23-34.4-29.19-52.33-45.5C288.69,3.89,270.12-1.91,251.69,.56c-17.85,2.36-33.74,12.52-43.36,27.74-25.44,42.51-43.42,89.05-53.18,137.62-3.83-5.53-7.22-11.34-10.16-17.39-10.11-21.3-35.56-30.36-56.86-20.26-5.16,2.45-9.77,5.9-13.56,10.16-35.79,36.58-55.64,85.85-55.19,137.03-1.02,107.57,71.34,202.01,175.46,229.03,19.37,4.87,39.26,7.4,59.24,7.51,.64,0,7.45-.06,10.2-.26,127.4-4.13,228.5-108.68,228.34-236.15-.09-96.67-63.94-150.88-137.86-213.7Zm-81.25,294.23c-.68,.19-1.39,.29-2.1,.31l-15.04,.49-.69,.05c-.51,0-1.08,.02-1.57,.03-7.03-.1-14.05-1-20.88-2.68-.08-.02-.16-.04-.24-.06-7.67-2.07-8.77-12.45-1.83-16.33,33-18.44,57.7-50.64,65.52-89.58l2.06-10.24c1.42-7.09,10.24-9.68,15.25-4.47,5.25,5.47,9.84,10.7,13.58,15.67,9.34,12.41,10.04,18.52,10.05,26.42,.05,36.42-23.84,69.39-64.1,80.39Z"/></svg>