<?xml version="1.0" encoding="UTF-8"?><svg id="a" xmlns="http://www.w3.org/2000/svg" viewBox="0 0 512 512"><defs><style>.b{fill:#fff;}</style></defs><path class="b" d="M354.77,61.89c-16.79-14.23-34.4-29.19-52.33-45.5C288.69,3.89,270.12-1.91,251.69,.56c-17.85,2.36-33.74,12.52-43.36,27.74-25.44,42.51-43.42,89.05-53.18,137.62-3.83-5.53-7.22-11.34-10.16-17.39-10.11-21.3-35.56-30.36-56.86-20.26-5.16,2.45-9.77,5.9-13.56,10.16-35.79,36.58-55.64,85.85-55.19,137.03-1.02,107.57,71.34,202.01,175.46,229.03,19.37,4.87,39.26,7.4,59.24,7.51,.64,0,7.45-.06,10.2-.26,127.4-4.13,228.5-108.68,228.34-236.15-.09-96.67-63.94-150.88-137.86-213.7Zm46.36,353.7c-36.5,37.75-85.5,59.47-137.98,61.17l-.65,.02-.65,.04c-1.26,.08-5.81,.16-7.73,.17-17.05-.11-34.08-2.27-50.62-6.42-88.67-23.07-150-103.15-149.13-194.78v-.64c-.37-42.21,15.68-82.07,45.2-112.24l.57-.59,.39-.44c.69-.78,1.51-1.46,2.44-1.92,1.1-.55,2.25-.82,3.41-.82,2.36,0,5.43,1.16,6.97,4.4l.13,.26c3.61,7.51,7.8,14.72,12.55,21.57l3.68,5.31c16.32,23.57,52.94,16,58.58-12.1l1.16-5.77c8.96-44.61,25.32-87.04,48.64-126.11,4.1-6.3,10.71-10.47,18.18-11.46,1.29-.17,2.54-.26,3.78-.26,6.98,0,13.67,2.59,18.83,7.29,18.99,17.27,37.98,33.37,53.25,46.3l.1,.09c35.16,29.89,68.38,58.11,91.23,88.48,23.59,31.35,34.13,61.72,34.16,98.47,.07,52.52-20,102.22-56.5,139.97Z"/><path class="b" d="M254.12,356.99c-7.03-.1-14.05-1-20.88-2.68-.08-.02-.16-.04-.24-.06-7.67-2.07-8.77-12.45-1.83-16.33,33-18.44,57.7-50.64,65.52-89.58l2.06-10.24c1.42-7.09,10.24-9.68,15.25-4.47s9.84,10.7,13.58,15.67c9.34,12.41,10.04,18.52,10.05,26.42,.05,36.42-23.84,69.39-64.1,80.39-.68,.19-1.39,.29-2.1,.31l-15.04,.49-.69,.05c-.51,0-1.08,.02-1.57,.03Z"/></svg>